<svg class="svg-circle" xmlns="http://www.w3.org/2000/svg" width="100%" height="100%" viewBox="0 0 900 900">
  <!-- <g id="Group_19" data-name="Group 19"> -->
    <circle id="Ellipse_43" data-name="Ellipse 43" cx="15" cy="15" r="15" transform="translate(618 175)" fill="#ff5757"/>
    <circle id="Ellipse_7" data-name="Ellipse 7" cx="15" cy="15" r="15" transform="translate(618 436)" fill="#ff5757"/>
    <circle id="Ellipse_29" data-name="Ellipse 29" cx="15" cy="15" r="15" transform="translate(618 349)" fill="#ff5757"/>
    <circle id="Ellipse_37" data-name="Ellipse 37" cx="15" cy="15" r="15" transform="translate(618 262)" fill="#ff5757"/>
    <circle id="Ellipse_26" data-name="Ellipse 26" cx="15" cy="15" r="15" transform="translate(529 175)" fill="#ff5757"/>
    <circle id="Ellipse_8" data-name="Ellipse 8" cx="15" cy="15" r="15" transform="translate(529 436)" fill="#ff5757"/>
    <circle id="Ellipse_21" data-name="Ellipse 21" cx="15" cy="15" r="15" transform="translate(440 436)" fill="#ff5757"/>
    <circle id="Ellipse_30" data-name="Ellipse 30" cx="15" cy="15" r="15" transform="translate(352 436)" fill="#ff5757"/>
    <circle id="Ellipse_38" data-name="Ellipse 38" cx="15" cy="15" r="15" transform="translate(618 88)" fill="#ff5757"/>
    <circle id="Ellipse_9" data-name="Ellipse 9" cx="15" cy="15" r="15" transform="translate(529 349)" fill="#ff5757"/>
    <circle id="Ellipse_22" data-name="Ellipse 22" cx="15" cy="15" r="15" transform="translate(440 349)" fill="#ff5757"/>
    <circle id="Ellipse_31" data-name="Ellipse 31" cx="15" cy="15" r="15" transform="translate(352 349)" fill="#ff5757"/>
    <circle id="Ellipse_39" data-name="Ellipse 39" cx="15" cy="15" r="15" transform="translate(529 88)" fill="#ff5757"/>
    <circle id="Ellipse_10" data-name="Ellipse 10" cx="15" cy="15" r="15" transform="translate(529 262)" fill="#ff5757"/>
    <circle id="Ellipse_23" data-name="Ellipse 23" cx="15" cy="15" r="15" transform="translate(440 262)" fill="#ff5757"/>
    <circle id="Ellipse_40" data-name="Ellipse 40" cx="15" cy="15" r="15" transform="translate(440 88)" fill="#ff5757"/>
    <circle id="Ellipse_11" data-name="Ellipse 11" cx="15" cy="15" r="15" transform="translate(263 349)" fill="#ff5757"/>
    <circle id="Ellipse_33" data-name="Ellipse 33" cx="15" cy="15" r="15" transform="translate(263 175)" fill="#ff5757"/>
    <circle id="Ellipse_41" data-name="Ellipse 41" cx="15" cy="15" r="15" transform="translate(352 88)" fill="#ff5757"/>
    <circle id="Ellipse_12" data-name="Ellipse 12" cx="15" cy="15" r="15" transform="translate(263 262)" fill="#ff5757"/>
    <circle id="Ellipse_25" data-name="Ellipse 25" cx="15" cy="15" r="15" transform="translate(352 175)" fill="#ff5757"/>
    <circle id="Ellipse_34" data-name="Ellipse 34" cx="15" cy="15" r="15" transform="translate(263 436)" fill="#ff5757"/>
    <circle id="Ellipse_42" data-name="Ellipse 42" cx="15" cy="15" r="15" transform="translate(263 88)" fill="#ff5757"/>
    <circle id="Ellipse_36" data-name="Ellipse 36" cx="15" cy="15" r="15" transform="translate(440 175)" fill="#ff5757"/>
    <circle id="Ellipse_44" data-name="Ellipse 44" cx="15" cy="15" r="15" transform="translate(352 262)" fill="#ff5757"/>
  <!-- </g> -->
</svg>
